<svg width="15" height="15" viewBox="0 0 15 15" fill="none" xmlns="http://www.w3.org/2000/svg">
<path fill-rule="evenodd" clip-rule="evenodd" d="M1.87156 7.01544L2.11913 6.85175C2.49059 6.60625 2.73594 6.44319 2.90982 6.29744C3.07443 6.15938 3.1369 6.06706 3.16966 5.98064C3.20244 5.89418 3.21689 5.78351 3.18517 5.57078C3.15169 5.34613 3.07614 5.06111 2.96094 4.63068L2.85639 4.24005C2.30796 5.04284 1.95644 5.9912 1.87156 7.01544ZM3.59009 3.36517C3.59591 3.38039 3.60101 3.39605 3.60531 3.41214L3.87329 4.4134C3.97999 4.81201 4.07014 5.14882 4.11244 5.43257C4.13413 5.57814 4.14516 5.72055 4.13836 5.86164L5.70077 6.52006C5.73584 6.48463 5.77363 6.45125 5.81403 6.42037L6.96187 5.54251C7.02344 5.49539 7.08887 5.45568 7.15687 5.42337V3.7299C7.02662 3.68501 6.90131 3.62401 6.77694 3.55245C6.52844 3.40946 6.2481 3.20249 5.91638 2.95761L5.05509 2.32184C4.51278 2.59224 4.01893 2.94554 3.59009 3.36517ZM6.09487 1.92411L6.45219 2.18788C6.8105 2.45234 7.04794 2.62672 7.24456 2.73987C7.43075 2.847 7.53869 2.87379 7.63069 2.87478C7.72269 2.87578 7.83119 2.85134 8.01963 2.74826C8.21863 2.63939 8.45975 2.47019 8.82369 2.21354L9.21194 1.93969C8.70787 1.79579 8.17575 1.71875 7.62562 1.71875C7.09569 1.71875 6.58238 1.79024 6.09487 1.92411ZM10.2484 2.34824C10.2303 2.36602 10.2106 2.38257 10.1892 2.39764L9.34275 2.99466C9.00581 3.23231 8.72106 3.43317 8.4695 3.57075C8.34631 3.63812 8.2225 3.69537 8.09437 3.73721V5.42337C8.16231 5.45568 8.22775 5.49539 8.28931 5.54251L9.43719 6.42037C9.47825 6.45181 9.51669 6.48581 9.55225 6.52194L11.1528 5.85918C11.1462 5.71892 11.1572 5.57734 11.1788 5.43262C11.2211 5.14888 11.3112 4.81206 11.4179 4.41345L11.6859 3.41219C11.6875 3.40628 11.6892 3.40042 11.691 3.39462C11.269 2.97567 10.7828 2.62151 10.2484 2.34824ZM12.4235 4.28246L12.3303 4.63074C12.2151 5.06117 12.1396 5.34619 12.1061 5.57083C12.0744 5.78358 12.0888 5.89424 12.1216 5.98069C12.1543 6.06712 12.2168 6.15943 12.3814 6.29744C12.5553 6.44325 12.8006 6.60631 13.1721 6.85181L13.3772 6.98744C13.2899 5.99189 12.9506 5.0688 12.4235 4.28246ZM14.3325 7.75125C14.3356 7.66788 14.3371 7.58413 14.3371 7.5C14.3371 3.78985 11.3328 0.78125 7.62562 0.78125C3.91841 0.78125 0.914062 3.78985 0.914062 7.5C0.914062 11.2101 3.91841 14.2188 7.62562 14.2188C11.1413 14.2188 14.0249 11.5129 14.3134 8.069C14.3577 7.96656 14.3627 7.85406 14.3325 7.75125ZM13.3684 8.10538L12.6334 7.61956C12.2895 7.39225 11.9988 7.20006 11.7791 7.01581C11.6736 6.92744 11.5769 6.83488 11.4926 6.73319L9.85987 7.40925C9.85238 7.47725 9.83844 7.54513 9.81775 7.61213L9.36694 9.07275C9.35125 9.12362 9.33206 9.17275 9.30969 9.21981L10.2273 10.2811C10.3676 10.2343 10.5144 10.2063 10.6675 10.1888C10.9523 10.1562 11.3007 10.1562 11.7128 10.1562H12.7483C12.7507 10.1562 12.7531 10.1562 12.7554 10.1563C13.0792 9.53075 13.2922 8.83844 13.3684 8.10538ZM12.1488 11.0938H11.7388C11.2937 11.0938 10.9993 11.0944 10.7739 11.1202C10.5607 11.1446 10.4579 11.1871 10.3832 11.2411C10.3084 11.295 10.2355 11.3793 10.1449 11.5743C10.0492 11.7802 9.95537 12.0597 9.81462 12.4825L9.67325 12.9072C10.6541 12.5346 11.5072 11.9021 12.1488 11.0938ZM8.58713 13.2014L8.93331 12.1617C9.06369 11.7702 9.17381 11.4394 9.29469 11.1793C9.34906 11.0622 9.409 10.9516 9.47919 10.8493L8.58269 9.81238C8.49888 9.83294 8.41169 9.84375 8.32256 9.84375H6.92862C6.84594 9.84375 6.76494 9.83444 6.68675 9.81669L5.88896 10.8327C5.96412 10.9396 6.02761 11.0558 6.08498 11.1793C6.20585 11.4394 6.31597 11.7702 6.44631 12.1617L6.7995 13.2225C7.06931 13.2613 7.34512 13.2812 7.62562 13.2812C7.95319 13.2812 8.27444 13.2539 8.58713 13.2014ZM5.72415 12.9604L5.56502 12.4825C5.42427 12.0597 5.33046 11.7802 5.23478 11.5743C5.14416 11.3793 5.07124 11.295 4.99647 11.2411C4.92174 11.1871 4.81896 11.1446 4.60567 11.1202C4.38038 11.0944 4.08594 11.0938 3.64081 11.0938H3.10239C3.77562 11.9421 4.68188 12.5966 5.72415 12.9604ZM2.50473 10.1736C2.54501 10.1623 2.58749 10.1562 2.63137 10.1562H3.66683C4.07897 10.1562 4.42734 10.1562 4.71214 10.1888C4.85884 10.2056 4.9997 10.2319 5.13463 10.2753L5.9499 9.23706C5.92392 9.18475 5.90189 9.12988 5.88426 9.07275L5.43342 7.61213C5.41251 7.54438 5.39848 7.47569 5.39104 7.40687L3.79701 6.73513C3.71299 6.836 3.61694 6.92794 3.51219 7.01575C3.29246 7.2 3.00176 7.39219 2.65779 7.6195L1.88546 8.13006C1.96454 8.86075 2.17959 9.5505 2.50473 10.1736ZM7.62562 6.25525C7.59219 6.25525 7.55931 6.26581 7.53137 6.28719L6.38356 7.16506C6.35722 7.18519 6.33869 7.21244 6.32923 7.24312C6.32007 7.27275 6.31968 7.30475 6.32923 7.33563L6.78006 8.79625C6.78969 8.82756 6.80825 8.85375 6.83262 8.87294C6.85962 8.89425 6.89294 8.90625 6.92862 8.90625H8.32256C8.35825 8.90625 8.39156 8.89425 8.41856 8.87294C8.44294 8.85375 8.4615 8.82756 8.47113 8.79625L8.92194 7.33563C8.9315 7.30475 8.93113 7.27275 8.922 7.24312C8.9125 7.21244 8.894 7.18519 8.86763 7.16506L7.71981 6.28719C7.69187 6.26581 7.659 6.25525 7.62562 6.25525Z" fill="#E0E0E0"/>
</svg>
