<svg width="21" height="20" viewBox="0 0 21 20" fill="none" xmlns="http://www.w3.org/2000/svg">
<path d="M15.9661 3.33341H14.2995V2.50008C14.2995 2.27907 14.2117 2.06711 14.0554 1.91083C13.8991 1.75455 13.6872 1.66675 13.4661 1.66675C13.2451 1.66675 13.0332 1.75455 12.8769 1.91083C12.7206 2.06711 12.6328 2.27907 12.6328 2.50008V3.33341H7.63281V2.50008C7.63281 2.27907 7.54502 2.06711 7.38874 1.91083C7.23246 1.75455 7.02049 1.66675 6.79948 1.66675C6.57847 1.66675 6.36651 1.75455 6.21022 1.91083C6.05394 2.06711 5.96615 2.27907 5.96615 2.50008V3.33341H4.29948C3.63644 3.33341 3.00055 3.59681 2.53171 4.06565C2.06287 4.53449 1.79948 5.17037 1.79948 5.83341V15.8334C1.79948 16.4965 2.06287 17.1323 2.53171 17.6012C3.00055 18.07 3.63644 18.3334 4.29948 18.3334H15.9661C16.6292 18.3334 17.2651 18.07 17.7339 17.6012C18.2028 17.1323 18.4661 16.4965 18.4661 15.8334V5.83341C18.4661 5.17037 18.2028 4.53449 17.7339 4.06565C17.2651 3.59681 16.6292 3.33341 15.9661 3.33341ZM16.7995 15.8334C16.7995 16.0544 16.7117 16.2664 16.5554 16.4227C16.3991 16.579 16.1872 16.6667 15.9661 16.6667H4.29948C4.07847 16.6667 3.86651 16.579 3.71022 16.4227C3.55394 16.2664 3.46615 16.0544 3.46615 15.8334V10.0001H16.7995V15.8334ZM16.7995 8.33341H3.46615V5.83341C3.46615 5.6124 3.55394 5.40044 3.71022 5.24416C3.86651 5.08788 4.07847 5.00008 4.29948 5.00008H5.96615V5.83341C5.96615 6.05443 6.05394 6.26639 6.21022 6.42267C6.36651 6.57895 6.57847 6.66675 6.79948 6.66675C7.02049 6.66675 7.23246 6.57895 7.38874 6.42267C7.54502 6.26639 7.63281 6.05443 7.63281 5.83341V5.00008H12.6328V5.83341C12.6328 6.05443 12.7206 6.26639 12.8769 6.42267C13.0332 6.57895 13.2451 6.66675 13.4661 6.66675C13.6872 6.66675 13.8991 6.57895 14.0554 6.42267C14.2117 6.26639 14.2995 6.05443 14.2995 5.83341V5.00008H15.9661C16.1872 5.00008 16.3991 5.08788 16.5554 5.24416C16.7117 5.40044 16.7995 5.6124 16.7995 5.83341V8.33341Z" fill="#4F4F4F"/>
</svg>
