<svg width="16" height="15" viewBox="0 0 16 15" fill="none" xmlns="http://www.w3.org/2000/svg">
<g clip-path="url(#clip0_1_910)">
<path fill-rule="evenodd" clip-rule="evenodd" d="M1.87159 7.01544L2.11916 6.85175C2.49062 6.60625 2.73597 6.44319 2.90985 6.29744C3.07446 6.15938 3.13693 6.06706 3.16969 5.98064C3.20247 5.89418 3.21692 5.78351 3.18521 5.57078C3.15172 5.34613 3.07617 5.06111 2.96097 4.63068L2.85642 4.24005C2.30799 5.04284 1.95647 5.9912 1.87159 7.01544ZM3.59012 3.36517C3.59594 3.38039 3.60104 3.39605 3.60534 3.41214L3.87332 4.4134C3.98002 4.81201 4.07017 5.14882 4.11247 5.43257C4.13416 5.57814 4.14519 5.72055 4.13839 5.86164L5.7008 6.52006C5.73587 6.48463 5.77366 6.45125 5.81406 6.42037L6.96191 5.54251C7.02347 5.49539 7.08891 5.45568 7.15691 5.42337V3.7299C7.02666 3.68501 6.90134 3.62401 6.77697 3.55245C6.52847 3.40946 6.24813 3.20249 5.91641 2.95761L5.05512 2.32184C4.51281 2.59224 4.01896 2.94554 3.59012 3.36517ZM6.0949 1.92411L6.45222 2.18788C6.81053 2.45234 7.04797 2.62672 7.24459 2.73987C7.43078 2.847 7.53872 2.87379 7.63072 2.87478C7.72272 2.87578 7.83122 2.85134 8.01966 2.74826C8.21866 2.63939 8.45978 2.47019 8.82372 2.21354L9.21197 1.93969C8.70791 1.79579 8.17578 1.71875 7.62566 1.71875C7.09572 1.71875 6.58241 1.79024 6.0949 1.92411ZM10.2484 2.34824C10.2303 2.36602 10.2107 2.38257 10.1893 2.39764L9.34278 2.99466C9.00584 3.23231 8.72109 3.43317 8.46953 3.57075C8.34634 3.63812 8.22253 3.69537 8.09441 3.73721V5.42337C8.16234 5.45568 8.22778 5.49539 8.28934 5.54251L9.43722 6.42037C9.47828 6.45181 9.51672 6.48581 9.55228 6.52194L11.1528 5.85918C11.1462 5.71892 11.1573 5.57734 11.1788 5.43262C11.2211 5.14888 11.3113 4.81206 11.418 4.41345L11.686 3.41219C11.6875 3.40628 11.6892 3.40042 11.691 3.39462C11.269 2.97567 10.7828 2.62151 10.2484 2.34824ZM12.4235 4.28246L12.3303 4.63074C12.2151 5.06117 12.1396 5.34619 12.1061 5.57083C12.0744 5.78358 12.0888 5.89424 12.1216 5.98069C12.1543 6.06712 12.2168 6.15943 12.3815 6.29744C12.5553 6.44325 12.8007 6.60631 13.1722 6.85181L13.3773 6.98744C13.29 5.99189 12.9506 5.0688 12.4235 4.28246ZM14.3325 7.75125C14.3356 7.66788 14.3372 7.58413 14.3372 7.5C14.3372 3.78985 11.3328 0.78125 7.62566 0.78125C3.91844 0.78125 0.914093 3.78985 0.914093 7.5C0.914093 11.2101 3.91844 14.2188 7.62566 14.2188C11.1413 14.2188 14.0249 11.5129 14.3134 8.069C14.3577 7.96656 14.3627 7.85406 14.3325 7.75125ZM13.3684 8.10538L12.6335 7.61956C12.2895 7.39225 11.9988 7.20006 11.7791 7.01581C11.6736 6.92744 11.577 6.83488 11.4926 6.73319L9.85991 7.40925C9.85241 7.47725 9.83847 7.54513 9.81778 7.61213L9.36697 9.07275C9.35128 9.12362 9.33209 9.17275 9.30972 9.21981L10.2273 10.2811C10.3676 10.2343 10.5144 10.2063 10.6675 10.1888C10.9523 10.1562 11.3007 10.1562 11.7128 10.1562H12.7483C12.7507 10.1562 12.7531 10.1562 12.7555 10.1563C13.0792 9.53075 13.2922 8.83844 13.3684 8.10538ZM12.1488 11.0938H11.7388C11.2937 11.0938 10.9993 11.0944 10.774 11.1202C10.5607 11.1446 10.4579 11.1871 10.3832 11.2411C10.3084 11.295 10.2355 11.3793 10.1449 11.5743C10.0492 11.7802 9.95541 12.0597 9.81466 12.4825L9.67328 12.9072C10.6541 12.5346 11.5073 11.9021 12.1488 11.0938ZM8.58716 13.2014L8.93334 12.1617C9.06372 11.7702 9.17384 11.4394 9.29472 11.1793C9.34909 11.0622 9.40903 10.9516 9.47922 10.8493L8.58272 9.81238C8.49891 9.83294 8.41172 9.84375 8.32259 9.84375H6.92866C6.84597 9.84375 6.76497 9.83444 6.68678 9.81669L5.88899 10.8327C5.96415 10.9396 6.02764 11.0558 6.08501 11.1793C6.20588 11.4394 6.31601 11.7702 6.44634 12.1617L6.79953 13.2225C7.06934 13.2613 7.34516 13.2812 7.62566 13.2812C7.95322 13.2812 8.27447 13.2539 8.58716 13.2014ZM5.72418 12.9604L5.56506 12.4825C5.42431 12.0597 5.33049 11.7802 5.23481 11.5743C5.14419 11.3793 5.07127 11.295 4.9965 11.2411C4.92177 11.1871 4.81899 11.1446 4.60571 11.1202C4.38041 11.0944 4.08597 11.0938 3.64084 11.0938H3.10242C3.77566 11.9421 4.68191 12.5966 5.72418 12.9604ZM2.50476 10.1736C2.54504 10.1623 2.58752 10.1562 2.6314 10.1562H3.66686C4.079 10.1562 4.42737 10.1562 4.71217 10.1888C4.85887 10.2056 4.99973 10.2319 5.13466 10.2753L5.94993 9.23706C5.92396 9.18475 5.90192 9.12988 5.88429 9.07275L5.43346 7.61213C5.41254 7.54438 5.39851 7.47569 5.39107 7.40687L3.79704 6.73513C3.71302 6.836 3.61697 6.92794 3.51222 7.01575C3.29249 7.2 3.00179 7.39219 2.65782 7.6195L1.88549 8.13006C1.96457 8.86075 2.17962 9.5505 2.50476 10.1736ZM7.62566 6.25525C7.59222 6.25525 7.55934 6.26581 7.53141 6.28719L6.38359 7.16506C6.35725 7.18519 6.33872 7.21244 6.32926 7.24312C6.3201 7.27275 6.31971 7.30475 6.32926 7.33563L6.78009 8.79625C6.78972 8.82756 6.80828 8.85375 6.83266 8.87294C6.85966 8.89425 6.89297 8.90625 6.92866 8.90625H8.32259C8.35828 8.90625 8.39159 8.89425 8.41859 8.87294C8.44297 8.85375 8.46153 8.82756 8.47116 8.79625L8.92197 7.33563C8.93153 7.30475 8.93116 7.27275 8.92203 7.24312C8.91253 7.21244 8.89403 7.18519 8.86766 7.16506L7.71984 6.28719C7.69191 6.26581 7.65903 6.25525 7.62566 6.25525Z" fill="#282828"/>
</g>
<defs>
<clipPath id="clip0_1_910">
<rect width="15" height="15" fill="white" transform="translate(0.132812)"/>
</clipPath>
</defs>
</svg>
