<svg width="14" height="18" viewBox="0 0 14 18" fill="none" xmlns="http://www.w3.org/2000/svg">
<path d="M10.7745 9.65825C10.6727 9.61776 10.564 9.59771 10.4544 9.59925C10.3449 9.60079 10.2368 9.62388 10.1362 9.66722C10.0356 9.71055 9.94449 9.77327 9.86813 9.85181C9.79178 9.93034 9.73164 10.0231 9.69114 10.1249C9.65065 10.2267 9.6306 10.3354 9.63214 10.445C9.63368 10.5545 9.65678 10.6626 9.70011 10.7632C9.74345 10.8638 9.80617 10.9549 9.8847 11.0313C9.96323 11.1076 10.056 11.1678 10.1578 11.2082C11.3745 11.6916 12.1328 12.4416 12.1328 13.1666C12.1328 14.3499 10.0828 15.6666 7.13281 15.6666C4.18281 15.6666 2.13281 14.3499 2.13281 13.1666C2.13281 12.4416 2.89114 11.6916 4.10781 11.2082C4.31335 11.1265 4.47799 10.9664 4.56551 10.7632C4.65303 10.5601 4.65625 10.3305 4.57448 10.1249C4.4927 9.91937 4.33263 9.75473 4.12946 9.66722C3.9263 9.5797 3.69669 9.57647 3.49114 9.65825C1.59948 10.4082 0.466145 11.7166 0.466145 13.1666C0.466145 15.4999 3.39114 17.3332 7.13281 17.3332C10.8745 17.3332 13.7995 15.4999 13.7995 13.1666C13.7995 11.7166 12.6661 10.4082 10.7745 9.65825ZM6.29948 7.21658V13.1666C6.29948 13.3876 6.38728 13.5996 6.54356 13.7558C6.69984 13.9121 6.9118 13.9999 7.13281 13.9999C7.35382 13.9999 7.56579 13.9121 7.72207 13.7558C7.87835 13.5996 7.96614 13.3876 7.96614 13.1666V7.21658C8.75169 7.01375 9.4363 6.53139 9.89165 5.85991C10.347 5.18843 10.5418 4.37393 10.4396 3.56908C10.3373 2.76424 9.94509 2.0243 9.33634 1.48798C8.72758 0.951655 7.94412 0.655762 7.13281 0.655762C6.3215 0.655762 5.53804 0.951655 4.92928 1.48798C4.32053 2.0243 3.92827 2.76424 3.82605 3.56908C3.72382 4.37393 3.91863 5.18843 4.37398 5.85991C4.82932 6.53139 5.51393 7.01375 6.29948 7.21658ZM7.13281 2.33325C7.46245 2.33325 7.78468 2.431 8.05876 2.61413C8.33284 2.79727 8.54646 3.05757 8.67261 3.36211C8.79876 3.66665 8.83176 4.00176 8.76745 4.32507C8.70315 4.64837 8.54441 4.94534 8.31132 5.17843C8.07823 5.41151 7.78126 5.57025 7.45796 5.63456C7.13466 5.69887 6.79955 5.66586 6.49501 5.53971C6.19046 5.41357 5.93016 5.19995 5.74703 4.92586C5.56389 4.65178 5.46614 4.32955 5.46614 3.99991C5.46614 3.55789 5.64174 3.13396 5.9543 2.8214C6.26686 2.50884 6.69078 2.33325 7.13281 2.33325Z" fill="#4F4F4F"/>
</svg>
