<svg width="21" height="20" viewBox="0 0 21 20" fill="none" xmlns="http://www.w3.org/2000/svg">
<g clip-path="url(#clip0_1_1362)">
<path d="M9.29948 1.66675C7.6513 1.66675 6.04014 2.15549 4.66973 3.07117C3.29932 3.98685 2.23121 5.28834 1.60048 6.81105C0.969751 8.33377 0.804724 10.0093 1.12627 11.6258C1.44781 13.2423 2.24148 14.7272 3.40692 15.8926C4.57236 17.0581 6.05722 17.8517 7.67373 18.1733C9.29023 18.4948 10.9658 18.3298 12.4885 17.6991C14.0112 17.0683 15.3127 16.0002 16.2284 14.6298C17.1441 13.2594 17.6328 11.6483 17.6328 10.0001C17.6328 8.90573 17.4173 7.8221 16.9985 6.81105C16.5797 5.80001 15.9659 4.88135 15.192 4.10752C14.4182 3.3337 13.4996 2.71987 12.4885 2.30109C11.4775 1.8823 10.3938 1.66675 9.29948 1.66675ZM9.29948 16.6667C7.98094 16.6667 6.692 16.2758 5.59568 15.5432C4.49935 14.8107 3.64487 13.7695 3.14028 12.5513C2.6357 11.3331 2.50367 9.99269 2.76091 8.69948C3.01814 7.40627 3.65308 6.21839 4.58543 5.28604C5.51778 4.35369 6.70567 3.71875 7.99888 3.46151C9.29208 3.20428 10.6325 3.3363 11.8507 3.84088C13.0689 4.34547 14.1101 5.19995 14.8426 6.29628C15.5751 7.39261 15.9661 8.68154 15.9661 10.0001C15.9661 11.7682 15.2638 13.4639 14.0135 14.7141C12.7633 15.9644 11.0676 16.6667 9.29948 16.6667ZM9.29948 5.00008C9.07846 5.00008 8.8665 5.08788 8.71022 5.24416C8.55394 5.40044 8.46614 5.6124 8.46614 5.83342V9.51675L6.71614 10.5251C6.55561 10.6161 6.4298 10.7577 6.35846 10.9279C6.28712 11.0981 6.27427 11.2871 6.32193 11.4654C6.36959 11.6436 6.47507 11.801 6.62182 11.9129C6.76857 12.0247 6.9483 12.0847 7.13281 12.0834C7.27879 12.0844 7.42247 12.0471 7.54948 11.9751L9.71614 10.7251L9.79114 10.6501L9.92448 10.5417C9.95706 10.5005 9.98501 10.4558 10.0078 10.4084C10.035 10.3637 10.0573 10.3162 10.0745 10.2667C10.0971 10.2138 10.1112 10.1575 10.1161 10.1001L10.1328 10.0001V5.83342C10.1328 5.6124 10.045 5.40044 9.88873 5.24416C9.73245 5.08788 9.52049 5.00008 9.29948 5.00008Z" fill="#4F4F4F"/>
</g>
<defs>
<clipPath id="clip0_1_1362">
<rect width="20" height="20" fill="white" transform="translate(0.132812)"/>
</clipPath>
</defs>
</svg>
