<svg width="21" height="20" viewBox="0 0 21 20" fill="none" xmlns="http://www.w3.org/2000/svg">
<g clip-path="url(#clip0_1_1338)">
<path d="M11.4565 0C12.8969 0 14.0642 1.49793 14.0642 3.34566C14.0642 5.19353 12.8969 6.69136 11.4565 6.69136C10.0161 6.69136 8.84849 5.19353 8.84849 3.34566C8.84853 1.49793 10.0161 0 11.4565 0Z" fill="#4F4F4F"/>
<path d="M4.06023 12.9077C7.57033 12.9077 7.07802 11.6613 8.94731 11.8251C9.34908 11.8608 9.66263 11.8701 9.90789 11.8628C10.4382 11.8486 10.9921 11.4505 11.2854 11.3566C11.444 11.306 11.6309 11.2678 11.8333 11.2678C12.4235 11.2678 13.1779 11.5628 13.5717 11.5628C13.6864 11.5628 13.7678 11.5403 13.8259 11.5086C13.9528 11.4391 13.7528 11.1975 13.49 11.0711C13.227 10.9442 12.6839 10.7456 12.2758 10.628C11.8685 10.5103 11.2002 10.4078 10.7839 10.3984C10.3669 10.3896 9.94129 10.4337 9.83259 10.4968C9.72357 10.5598 9.39332 10.575 9.0945 10.5298L8.5535 10.4477L6.78215 10.2181L5.7328 9.85729C5.7328 9.85729 3.4038 9.13571 1.82982 9.52938C0.779537 10.0134 0.599048 10.2346 0.517761 10.7435C0.408036 11.4296 0.550781 12.9077 4.06023 12.9077Z" fill="#4F4F4F"/>
<path d="M16.0077 14.2184L17.1235 15.4666L19.1222 15.4562L19.7711 15.3584C19.7711 15.3584 18.7134 12.6032 18.5661 10.8816C18.4186 9.15928 16.7688 8.24098 16.7688 8.24098C16.4301 7.92602 15.6671 7.55705 14.9503 7.23438V14.8624L16.008 15.0725V14.2184L16.0077 14.2184Z" fill="#4F4F4F"/>
<path d="M16.0077 19.9992V18.8583C15.6966 18.618 15.3421 18.34 14.9501 18.0293V19.9999H16.0077V19.9992Z" fill="#4F4F4F"/>
<path d="M6.76952 9.82012L7.9641 9.9811V7.10596C6.41865 7.60416 3.9274 8.44356 2.84199 9.00668C4.25325 9.01154 5.68379 9.4495 5.74435 9.4683L6.76952 9.82012Z" fill="#4F4F4F"/>
<path d="M6.39587 19.9993H7.9641V12.22C7.7641 12.2816 7.59063 12.3737 7.38886 12.4846C7.13593 12.6237 6.85591 12.7765 6.46851 12.9084L6.39587 19.9993Z" fill="#4F4F4F"/>
<path d="M9.73526 10.1398C9.91219 10.0688 10.2191 10.0428 10.456 10.0337V7.9958L9.73526 7.19873V10.1398Z" fill="#4F4F4F"/>
<path d="M9.73526 12.2314V19.9992H10.456V12.123C10.2837 12.18 10.1034 12.225 9.91809 12.2299C9.86093 12.2314 9.79868 12.2321 9.73526 12.2314Z" fill="#4F4F4F"/>
<path d="M12.2274 10.219C12.3044 10.237 12.3787 10.2555 12.4458 10.2749C12.6743 10.3412 12.9384 10.4299 13.1786 10.5187V6.7915L12.2274 8.06779V10.219Z" fill="#4F4F4F"/>
<path d="M12.2274 16.4114V19.9991H13.1786V16.6022C13.0876 16.5283 12.9994 16.4565 12.9053 16.3799C12.7269 16.4258 12.4716 16.4652 12.2274 16.4114Z" fill="#4F4F4F"/>
<path d="M13.1786 11.8649C13.0754 11.8448 12.9685 11.8222 12.8523 11.7946C12.7981 11.7817 12.7412 11.7695 12.6853 11.7566L12.7667 12.3397L13.1786 13.4909V11.8649Z" fill="#4F4F4F"/>
<path d="M12.3099 11.9188C12.2866 11.7523 12.2377 11.6518 12.18 11.5939C12.042 11.4539 11.7609 11.6997 11.7483 11.8972C11.7419 11.9937 11.748 12.1116 11.7766 12.2547C11.8748 12.747 12.227 13.9522 12.227 14.1733C12.227 14.3949 11.8992 15.0346 11.9481 15.7969C11.9976 16.5599 12.9818 16.1663 12.9818 16.1663C12.9818 16.1663 17.4831 19.8315 17.8271 19.9053C18.1716 19.9791 19.3772 18.8969 19.4259 18.3062C19.475 17.716 19.1183 15.6499 19.1183 15.6499L19.0516 15.6599L17.4265 15.6621L17.4251 15.9209L13.5383 15.15L12.8821 13.9527L12.4066 12.6244L12.3099 11.9188Z" fill="#4F4F4F"/>
</g>
<defs>
<clipPath id="clip0_1_1338">
<rect width="20" height="20" fill="white" transform="translate(0.132812)"/>
</clipPath>
</defs>
</svg>
