<svg width="21" height="20" viewBox="0 0 21 20" fill="none" xmlns="http://www.w3.org/2000/svg">
<g clip-path="url(#clip0_1_1353)">
<path d="M20.1261 12.146L20.076 10.1664L20.0314 10.2336C20.0336 10.1704 20.0372 10.1068 20.0372 10.0436C20.0351 8.92172 19.7154 7.79957 19.3514 6.78762C19.0036 5.82789 18.6983 5.0059 18.2717 4.26051C17.8466 3.51605 17.2888 2.85895 16.497 2.29191C15.664 1.69465 14.6377 1.35355 13.542 1.14867C12.4452 0.945 11.2724 0.881172 10.1328 0.880859C8.99352 0.881172 7.82066 0.945 6.72414 1.14867C5.6282 1.35355 4.60191 1.69465 3.76859 2.2916C2.97719 2.85895 2.4193 3.51609 1.99453 4.26051C1.56797 5.00586 1.26262 5.82789 0.914805 6.7873C0.550508 7.79984 0.231094 8.92168 0.228672 10.0436C0.228672 10.1126 0.232656 10.1819 0.235078 10.2509L0.189883 10.1834L0.139492 12.1456C0.135234 12.306 0.132812 12.4657 0.132812 12.6244C0.133125 13.2718 0.171875 13.9039 0.305937 14.5109C0.439375 15.1167 0.672969 15.7012 1.06199 16.2169C1.51359 16.8172 2.05074 17.3092 2.66418 17.6979C3.58512 18.282 4.66578 18.6341 5.90242 18.8427C7.14031 19.0512 8.54039 19.119 10.1328 19.1193C12.2028 19.1184 14.0196 18.9563 15.5531 18.519C16.3192 18.3 17.0154 18.0105 17.6307 17.632C18.2451 17.2539 18.7779 16.7843 19.2048 16.217C19.5935 15.7012 19.8268 15.1168 19.9599 14.5112C20.0937 13.9048 20.1325 13.273 20.1328 12.6257C20.1328 12.4666 20.1304 12.3066 20.1261 12.146ZM0.471133 12.822C0.471445 12.8226 0.471758 12.8229 0.472344 12.8232L0.473555 12.825L0.471133 12.822ZM18.6521 11.036C18.56 11.3408 18.4204 11.6174 18.2158 11.8742C17.8537 12.3276 17.4375 12.687 16.9459 12.982C16.2093 13.4232 15.293 13.7173 14.161 13.8974C13.0303 14.0776 11.6898 14.1426 10.1328 14.1423C8.05641 14.1432 6.36629 14.0257 5.04352 13.6782C4.38152 13.5048 3.81203 13.2763 3.32039 12.982C2.82879 12.687 2.41258 12.3276 2.05043 11.8742C1.84555 11.6174 1.70629 11.3407 1.6141 11.036C1.52219 10.7319 1.47941 10.3991 1.47941 10.0436C1.4773 9.16727 1.74723 8.15957 2.09105 7.21266C2.4352 6.25937 2.72402 5.50027 3.07949 4.88312C3.43645 4.2648 3.84805 3.77805 4.49937 3.30687C5.10949 2.86566 5.9675 2.56 6.95258 2.37832C7.93707 2.1948 9.04184 2.13129 10.1328 2.1316C11.2241 2.13129 12.3292 2.1948 13.3134 2.37832C14.2987 2.56 15.1565 2.86566 15.7666 3.30687C16.4179 3.77836 16.8298 4.26508 17.1868 4.88312C17.5422 5.50027 17.8311 6.25937 18.1752 7.21266C18.519 8.15926 18.7886 9.16723 18.7865 10.0436C18.7865 10.3991 18.7441 10.7319 18.6521 11.036Z" fill="#4F4F4F"/>
<path d="M8.35383 10.3823L8.20726 11.5564H12.059L11.9118 10.3823H8.35383Z" fill="#4F4F4F"/>
<path d="M11.6516 3.66748H8.61398L8.49551 4.61619H11.7701L11.6516 3.66748Z" fill="#4F4F4F"/>
<path d="M8.45828 6.52232C8.58344 6.36783 8.74227 6.24658 8.91875 6.15193C9.27297 5.96385 9.69984 5.87654 10.1328 5.87561C10.4583 5.87588 10.7796 5.926 11.0691 6.02947C11.3579 6.1333 11.6199 6.29057 11.808 6.52232C11.8795 6.61029 11.9369 6.71104 11.9802 6.81975H15.6921L14.828 4.19186C14.7174 3.85627 14.4041 3.62939 14.0505 3.62939H12.241L12.3967 4.87463L12.4382 5.20623H7.82738L8.02465 3.62939H6.21512C5.86215 3.62939 5.54887 3.85627 5.43832 4.19186L4.57418 6.81975H8.28606C8.32938 6.71104 8.3868 6.61029 8.45828 6.52232Z" fill="#4F4F4F"/>
<path d="M9.13063 7.61773C9.37004 7.75055 9.73586 7.83914 10.1328 7.8382C10.4309 7.83852 10.7111 7.78996 10.9335 7.70812C11.1552 7.62844 11.3145 7.51453 11.3921 7.40918H8.87414C8.92606 7.47883 9.01215 7.55273 9.13063 7.61773Z" fill="#4F4F4F"/>
<path d="M10.1328 6.46558C9.86961 6.46527 9.61067 6.50769 9.3957 6.58465C9.22469 6.64543 9.0861 6.72816 8.98774 6.8198H11.2791C11.2223 6.76668 11.1521 6.7166 11.069 6.67199C10.8278 6.54187 10.484 6.46465 10.1328 6.46558Z" fill="#4F4F4F"/>
<path d="M15.8857 7.40922H12.0321C12.0016 7.53656 11.9441 7.65531 11.8684 7.75703C11.7518 7.91398 11.5966 8.03703 11.4189 8.13445C11.0635 8.32836 10.6146 8.42695 10.1328 8.42785C9.77184 8.42758 9.42926 8.37105 9.13 8.26207C8.83258 8.15246 8.57301 7.99184 8.39777 7.75699C8.32145 7.65531 8.26465 7.53652 8.2341 7.40918H4.38051L3.36797 10.4889C3.28609 10.7384 3.32828 11.0117 3.48215 11.2239C3.63606 11.4365 3.88277 11.5623 4.14477 11.5623H7.61238L7.83344 9.79246H12.4327L12.6538 11.5623H16.1214C16.3839 11.5623 16.63 11.4365 16.7834 11.2239C16.9372 11.0117 16.98 10.7384 16.8981 10.4889L15.8857 7.40922Z" fill="#4F4F4F"/>
</g>
<defs>
<clipPath id="clip0_1_1353">
<rect width="20" height="20" fill="white" transform="translate(0.132812)"/>
</clipPath>
</defs>
</svg>
